# xmcd
#
# Track frame offsets:
#	150
#	19085
#	35650
#	51849
#	65893
#	84679
#	101575
#	117051
#	130961
#	148061
#
# Disc length: 2172 seconds
#
# Revision: 0
# Processed by: cddbd v1.5.2PL0 Copyright (c) Steve Scherf et al.
# Submitted via: Jack! The Knife
#
DISCID=91087a0a
DTITLE=Nek - Nella stanza 26
DYEAR=2006
DGENRE=Pop
TTITLE0=Notte di febbraio
TTITLE1=Cri
TTITLE2=Instabile
TTITLE3=Fumo
TTITLE4=Attimi
TTITLE5=Nella stanza 26
TTITLE6=Sei
TTITLE7=Ancora un giorno di te
TTITLE8=Serenità
TTITLE9=Contro le mie ombre
EXTD=
EXTT0=
EXTT1=
EXTT2=
EXTT3=
EXTT4=
EXTT5=
EXTT6=
EXTT7=
EXTT8=
EXTT9=
PLAYORDER=
